#tb 0: 1/25
0,          0,          0,        1,   203280, 0xa7d03ff5
0,          1,          1,        1,   203280, 0xb908d8d4
0,          2,          2,        1,   203280, 0xf7900408
0,          3,          3,        1,   203280, 0xb74ed6a8
